<svg xmlns="http://www.w3.org/2000/svg" viewBox="0 0 117.6 117.59"><defs><style>.cls-1{fill:#f26114;}</style></defs><title>cross-icon</title><g id="Layer_2" data-name="Layer 2"><g id="Layer_1-2" data-name="Layer 1"><path class="cls-1" d="M72.61,58.79l42.1-42A9.83,9.83,0,0,0,100.8,2.88L58.8,45l-42-42.1A9.83,9.83,0,0,0,2.9,16.78l42.1,42-42.1,42a9.78,9.78,0,0,0-.06,13.84l.06.06a9.78,9.78,0,0,0,13.84.06l.06-.06,42-42.1,42,42.1a9.78,9.78,0,0,0,13.84.06l.06-.06a9.78,9.78,0,0,0,.05-13.84l-.05-.06Z"/></g></g></svg>