<svg xmlns="http://www.w3.org/2000/svg" viewBox="0 0 158.55 158.49"><title>Asset 30</title><g id="Layer_2" data-name="Layer 2"><g id="Layer_1-2" data-name="Layer 1"><path d="M158.55,24.45c-.31,2.5-.58,5-.94,7.49-2.32,16.22-7.53,31.31-17.79,44.32-6.76,8.58-15,15.1-25.82,17.9-2.14.56-4.36.76-6.53,1.19a3.56,3.56,0,0,0-1.58.75q-4.29,3.53-8.5,7.16a2.12,2.12,0,0,0-.79,1.32c0,6.45,0,12.89,0,19.56.89,0,1.69,0,2.49,0,3.08.17,6.24,0,9.22.64a16.88,16.88,0,0,1,13.11,16.45c0,2.53,0,5,0,7.65l1.23.3a4.77,4.77,0,0,1,3.72,5.15,4.52,4.52,0,0,1-4.72,4.14H37.26c-2.85,0-4.78-1.62-5-4.16s1.38-4.64,4.19-5.22l.76-.2c0-2.25,0-4.5,0-6.75,0-10.55,7.44-18,18-18H62v-1.77c0-5.77,0-11.55,0-17.33A2.23,2.23,0,0,0,61,103c-2.77-2.22-5.44-4.57-8.17-6.84a3.2,3.2,0,0,0-1.54-.83C41,94.41,32.34,90,24.93,83,14.71,73.34,8.46,61.33,4.45,48.07A101.58,101.58,0,0,1,0,15.75a4.42,4.42,0,0,1,3.52-4.29A12.63,12.63,0,0,1,6,11.27H24.79c0-1.81.11-3.56,0-5.28A5.64,5.64,0,0,1,27.9,0H130.68a5.61,5.61,0,0,1,3.14,6c-.13,1.72,0,3.46,0,5.29h1.86c5.72,0,11.43.06,17.15,0,2.65,0,4.59.88,5.74,3.31ZM34.5,9.54c0,1.21-.08,2.24,0,3.25.66,6.87,1.12,13.77,2.08,20.59a127.63,127.63,0,0,0,11.5,38.75c3.87,7.93,8.57,15.28,15.49,21,9.76,8,20.59,8.4,30.5.62A49.89,49.89,0,0,0,103,84.53c7.56-9.94,12-21.39,15.33-33.31a170.75,170.75,0,0,0,5.52-33.46c.2-2.71.26-5.43.38-8.22ZM111.8,149v-6.65c0-5.5-3.1-8.57-8.65-8.58H78.72c-8,0-16,0-24,0-4.2,0-7.56,2.83-7.88,6.79-.22,2.76,0,5.55,0,8.43ZM133.22,21c-2,22-6.74,43.13-17.72,62.57a40.43,40.43,0,0,0,5.41-2.77c7.77-5,13.25-12,17.61-19.92A86.63,86.63,0,0,0,148,31.65c.53-3.5.77-7,1.15-10.68ZM9.71,21a5.56,5.56,0,0,0-.07.84c.19,2.21.35,4.41.59,6.61A87.84,87.84,0,0,0,18.84,58.5c4.3,8.59,9.84,16.2,17.92,21.66,2,1.33,4.12,2.38,6.19,3.55l.25-.33C32.09,64.07,27.36,42.94,25.36,21Zm62,87v16.1H86.87V108A30.75,30.75,0,0,1,71.74,108Z"/></g></g></svg>