<svg xmlns="http://www.w3.org/2000/svg" xmlns:xlink="http://www.w3.org/1999/xlink" viewBox="0 0 342.3 341.42"><defs><style>.cls-1{fill:#ffeb3b;}.cls-2{fill:#424242;}.cls-2,.cls-5{opacity:0.2;isolation:isolate;}.cls-3{fill:url(#radial-gradient);}.cls-4,.cls-5{fill:#795548;}.cls-6{fill:url(#radial-gradient-2);}.cls-7{fill:#1e88e5;}.cls-8{fill:#ff5722;}</style><radialGradient id="radial-gradient" cx="620.57" cy="-205.87" r="83.24" gradientTransform="matrix(0.88, 0.47, 0.47, -0.88, -157.97, -371.38)" gradientUnits="userSpaceOnUse"><stop offset="0.26" stop-color="#ffd54f"/><stop offset="0.8" stop-color="#ffc107"/></radialGradient><radialGradient id="radial-gradient-2" cx="442.59" cy="-201.32" r="90.83" gradientTransform="matrix(0.88, 0.47, 0.47, -0.88, -157.97, -371.38)" gradientUnits="userSpaceOnUse"><stop offset="0.26" stop-color="#ffd54f"/><stop offset="0.78" stop-color="#ffc107"/></radialGradient></defs><title>emoji-confetti-ball</title><g id="Layer_2" data-name="Layer 2"><g id="Layer_1-2" data-name="Layer 1"><path class="cls-1" d="M278.49,100.07c-.14-.4-11.47-37.13-48.4-57.31-31.22-17-67.77-6.77-68.18-6.66l-7.06-21.47c1.84-.55,45.86-12.92,88.42,9.62s58.49,66.54,59.15,68.41Z"/><path class="cls-2" d="M186.62,16.53c19.72,0,37.85,4.32,53.94,12.83C272.81,46.45,289.07,76.58,294.69,89L282,93c-4.87-11.65-18.88-38.74-49.12-55.26-12.8-7-27.82-10.55-44.6-10.55a120.91,120.91,0,0,0-22.51,2.13l-3.46-10.49a131.64,131.64,0,0,1,24.33-2.25m0-5.77c-18.08,0-30.79,3.58-31.77,3.87l7.06,21.47a106.35,106.35,0,0,1,26.35-3.17c12.45,0,27.71,2.13,41.83,9.83,37,20.18,48.26,56.91,48.4,57.31l23.93-7.38c-.66-1.87-16.72-45.92-59.15-68.41C223.17,13.62,202.76,10.76,186.62,10.76Z"/><path class="cls-3" d="M269.56,147.9c12.62,41.14,13.89,77.86,3.54,86.22a82.79,82.79,0,0,0,9.75-2.36A84.07,84.07,0,0,0,233.46,71a81.82,81.82,0,0,0-9.37,3.52C237.36,75.65,256.93,106.73,269.56,147.9Z"/><path class="cls-4" d="M221.1,74.82a9.25,9.25,0,0,0-4.62,3.54c2.45-1.38,5-2.68,7.61-3.83A8,8,0,0,0,221.1,74.82Z"/><path class="cls-4" d="M273.13,234.09a85,85,0,0,1-8.45,1.1,9.08,9.08,0,0,0,5.8.35A7.2,7.2,0,0,0,273.13,234.09Z"/><path class="cls-4" d="M269.56,147.9c-12.63-41.17-32.2-72.25-45.44-73.37-2.62,1.15-5.16,2.45-7.61,3.83-8.16,11.31-6.25,45.78,5.51,84.12s29.58,68,42.66,72.71a83.84,83.84,0,0,0,8.45-1.1C283.48,225.76,282.21,189,269.56,147.9Z"/><path class="cls-5" d="M258.23,75.94a75.44,75.44,0,0,1,22.11,147.55,71.64,71.64,0,0,1-8.74,2.1c-1.78.32-3.57.58-5.39.78-8.16-4.87-24-27.73-35.92-66.42s-11.59-66.54-7.58-75.13c1.59-.83,3.23-1.64,4.9-2.36A78.25,78.25,0,0,1,236,79.29a75.63,75.63,0,0,1,22.2-3.35m0-8.65A84.8,84.8,0,0,0,233.52,71a81.82,81.82,0,0,0-9.37,3.52c-2.62,1.15-5.16,2.45-7.61,3.83-8.16,11.31-6.25,45.78,5.51,84.12s29.58,68,42.66,72.71a84.22,84.22,0,0,0,8.45-1.1,82.15,82.15,0,0,0,9.74-2.36A84.07,84.07,0,0,0,258.23,67.29Z"/><path class="cls-2" d="M225,83.67c7.32,3.66,24,26.81,36.29,66.76s11.45,68.47,7.44,75.62c-.84.12-1.7.23-2.54.32-8.15-4.87-24-27.73-35.92-66.42s-11.59-66.54-7.58-75.13c.78-.4,1.56-.78,2.31-1.15m-.87-9.14c-2.62,1.15-5.16,2.45-7.61,3.83-8.16,11.31-6.25,45.78,5.51,84.12s29.58,68,42.66,72.71a83.84,83.84,0,0,0,8.45-1.1c10.35-8.36,9.08-45.05-3.54-86.22S237.36,75.65,224.12,74.53Z"/><path class="cls-6" d="M127.75,72.71c41.14-12.62,77.87-13.89,86.23-3.54A84.08,84.08,0,1,0,50.87,108.78a83.69,83.69,0,0,0,3.51,9.37C55.51,104.92,86.61,85.37,127.75,72.71Z"/><path class="cls-4" d="M54.67,121.17a9.21,9.21,0,0,0,3.55,4.62c-1.39-2.45-2.68-5-3.84-7.61A8.75,8.75,0,0,0,54.67,121.17Z"/><path class="cls-4" d="M214,69.17c.52,2.82.86,5.65,1.09,8.44a9,9,0,0,0,.35-5.79A7.09,7.09,0,0,0,214,69.17Z"/><path class="cls-4" d="M127.75,72.71c-41.14,12.66-72.24,32.21-73.34,45.47,1.16,2.62,2.45,5.16,3.84,7.61C69.55,134,104,132,142.37,120.28s67.94-29.58,72.7-42.67c-.23-2.82-.58-5.62-1.09-8.44C205.62,58.82,168.89,60.09,127.75,72.71Z"/><path class="cls-2" d="M131.27,8.66A75,75,0,0,1,203.34,62a69.84,69.84,0,0,1,2.1,8.74c.32,1.78.58,3.57.78,5.39-4.87,8.16-27.73,24-66.42,35.92-20.93,6.43-41.89,10.12-57.57,10.12-10.23,0-15.28-1.5-17.58-2.57-.84-1.59-1.65-3.23-2.37-4.87a80.43,80.43,0,0,1-3.17-8.42A75.54,75.54,0,0,1,131.27,8.66m0-8.65A84,84,0,0,0,54.41,118.15c1.16,2.62,2.45,5.16,3.84,7.61,4.58,3.31,13,5,24,5,16,0,37.36-3.52,60.11-10.5,38.34-11.76,67.94-29.58,72.7-42.66-.23-2.83-.58-5.63-1.09-8.45A84.11,84.11,0,0,0,131.27,0Z"/><path class="cls-5" d="M187.86,70.87c10.35,0,15.77,1.58,18.07,2.8.12.8.2,1.61.29,2.42-4.87,8.16-27.73,24-66.42,35.92-20.93,6.43-41.89,10.12-57.57,10.12-10.23,0-15.28-1.5-17.58-2.57-.41-.75-.78-1.5-1.16-2.25C67.15,110,90.3,93.27,130.26,81c21-6.46,41.92-10.15,57.6-10.15m0-8.65c-16,0-37.36,3.52-60.11,10.49-41.14,12.66-72.24,32.21-73.34,45.47,1.16,2.62,2.45,5.16,3.84,7.61,4.58,3.31,13,5,24,5,16,0,37.36-3.51,60.11-10.49,38.34-11.76,67.94-29.58,72.7-42.67-.23-2.82-.58-5.62-1.09-8.44C210.23,64.53,200.8,62.22,187.86,62.22Z"/><path class="cls-7" d="M77.53,116.48l15.66-13.35,20.58,24.16-10.9,9.28Z"/><path class="cls-7" d="M218.73,147.81l12.63,14.82-22.83,19.46-8.8-10.29Z"/><path class="cls-7" d="M206.54,298.78l14.27-12.13,18.74,22-9.92,8.45Z"/><path class="cls-8" d="M130.43,109.79c1.53,3.89,3,7.78,4.24,11.79.32,1,.92,7.75,1.1,3.89.17-4.07-1.47,4.3-1.82,5.22-4.7,13.37-15,24.62-26.7,32.34-16.63,11.1-67.25,29.23-75.41-1,0,4.73,0,9.43,0,14.16,1.32-34,57.22-24.07,46.38,2.77C64.79,212.21,32.94,221.5.33,214.66c.87.18-1.07,14.19,0,14.42,24.65,5.16,48.26,3.23,65.58-16.81,10.9-12.6,15.2-24.7,15-40.91-.11-14.06-3.63-28.59-19.8-31.65-17.5-3.31-29.18,9.57-29.38,25.86-.06,3.37-.63,7.52.06,10.84,2.57,12.08,16.23,15.25,26.84,15.8,21,1,43.24-8.25,58.49-22.49,21.56-20.15,23.47-48.37,13.23-74.38C132.05,99.5,128.79,105.58,130.43,109.79Z"/><path class="cls-7" d="M124.06,214.87c-13.26-.52-29.4-1.71-35,13.31-2.16,5.8-1.64,12.49-1.64,18.57,0,5.82.72,11.65.72,17.44,0-6.66-.55.32-4.24,2.77-3.17,2.13-8.13,2.1-11.79,2.25-13.55.57-35.23-4-36.84,14.7-.38,4.32-.87,10.32.29,14.61,2.07,7.85,10.95,11.39,11.67,19.84V303.94C44.55,318.36,25,323.06,12.67,323.61c-.32,0,.09,14.41,0,14.41,16.6-.72,34.62-7.47,34.68-25.92,0-4,.55-8.7-1-12.48-2.8-6.83-10.21-9.95-11-17.84v14.41c4.18-26.87,50,1.73,53.18-24,.78-6.26.24-13.24-.11-19.52-1.27-22,17.58-24.13,35.66-23.44C124,229.28,124.35,214.87,124.06,214.87Z"/><path class="cls-7" d="M255.81,180.47c-15.4,5.19-18.48,23.18-15.46,37.62,2.48,11.85,13.75,18.08,24,22.29,5.24,2.13,10.86,3.75,15.74,6.72,4.18,2.56,6.37,8.27,9.83,10.43,2,1.3,1.67-3.14-.2-2.13-.47.26-3.15,7.64-3.32,7.93-2.68,4.67-6.43,7.92-10.26,11.5-6.43,6-9.31,11.41-9.8,20.41-.29,5.16-.67,11,.08,16.11,1.5,10.09,12.8,15.83,21.91,18.63-1.24-.38,1.44-14,0-14.42-5.45-1.67-20.06-7.41-21.16-14.15-.46-2.91,5.62-9.05,8.94-12.17,9.92-9.28,14.53-18,14.67-31.54.15-10.95-.2-18.62-10.72-25-14.76-9-36.5-10.06-40.07-30.73,0,4.73,0,9.43,0,14.16.31-10.53,5.93-17.94,15.74-21.22,1.55-.52-1.36-13.95,0-14.42Z"/><path class="cls-8" d="M181.17,133.54c-26.46,1.18-36.87,48.69-20.84,66.51,6.25,7,16.34,9.17,23,15.85,5.91,6,11.51,16.18,11.19,24.59-.72,19.61-34.6,37.05-38.23,11.28v14.41c1.56-9.14,11.65-12.51,19.46-8.1s12.74,15.19,11.45,23.75c-3.23,20.9-23.73,35.63-40.68,45.18-2.13,1.21,2,13.32,0,14.41,18.65-10.52,37.1-25.14,41.19-47.45,1.39-7.47,1.24-15.8.81-23.38-.49-8.79-2.68-18.31-9.51-24.47-6.14-5.54-18.16-6.64-22.17,2.3-2.1,4.67-1.44,14.59-.32,19.43,4.56,19.81,28.14,10.15,34.71-2.82,4.53-9,4.12-19.2,4-29-.15-13.11-3.06-26.58-13.15-35.8-11.93-10.9-26.32-12.54-28.36-31.19,0,4.73,0,9.42,0,14.15.83-14,11-34.53,27.44-35.28.35,0-.09-14.39,0-14.39Z"/></g></g></svg>