<svg xmlns="http://www.w3.org/2000/svg" viewBox="0 0 158.23 158.18"><title>Asset 31</title><g id="Layer_2" data-name="Layer 2"><g id="Layer_1-2" data-name="Layer 1"><path d="M158.23,82.33a16.48,16.48,0,0,1-4.3,7.22,14.36,14.36,0,0,1-9.8,3.94c-.77,0-1.55,0-2.59,0v1.83q0,22.76,0,45.5a16.91,16.91,0,0,1-13.22,16.86,19.24,19.24,0,0,1-4.29.46c-8,0-16.09,0-24.14,0-3.5,0-5.36-1.84-5.37-5.33,0-11.87-.13-23.73.06-35.59.08-5.18-3.45-9.08-9-8.87-4.33.16-8.67,0-13,0-5.4,0-8.54,3.17-8.54,8.58q0,17.72,0,35.44c0,4-1.71,5.74-5.74,5.74q-11.76,0-23.53,0c-10.39,0-17.74-7.33-17.75-17.71Q17,118,17,95.58V93.66a48.56,48.56,0,0,1-5.1-.46A13.84,13.84,0,0,1,.84,83.56C-.94,78.31.15,73.49,3.73,69.26c.46-.55,1-1.05,1.5-1.56Q35.49,37.45,65.74,7.18C68.65,4.26,71.48,1.27,75.58,0H83c3.91,1.26,6.7,4,9.51,6.85q29.76,29.84,59.6,59.57c2.66,2.66,5.06,5.41,6.11,9.1ZM103.8,148.88h19.47c6,0,9-3,9-8.9V90.15c0-4.31,1.64-5.93,6-5.93,2,0,3.92,0,5.88,0a5.28,5.28,0,0,0,4-8.49,14.73,14.73,0,0,0-1.47-1.59L83.94,11.42c-3.31-3.31-6-3.31-9.27,0l-56,56C16,70,13.42,72.58,10.87,75.2a5,5,0,0,0-1.08,5.85,5,5,0,0,0,4.9,3.16c2,0,3.92,0,5.88,0,4,0,5.75,1.72,5.75,5.73q0,25.3,0,50.6c0,5.09,3.24,8.32,8.31,8.33H53.2c.5,0,1,0,1.57-.09v-2c0-10.06,0-20.12,0-30.17,0-9.66,6.66-16.85,16.29-17.39,5.45-.31,10.93-.08,16.4,0a14.17,14.17,0,0,1,2.75.34,16.92,16.92,0,0,1,13.56,16.9c.06,10.16,0,20.33,0,30.49Z"/></g></g></svg>