<svg xmlns="http://www.w3.org/2000/svg" viewBox="0 0 143.66 134.45"><defs><style>.cls-1{fill:#f26114;fill-rule:evenodd;}</style></defs><title>kup-icon</title><g id="Layer_2" data-name="Layer 2"><g id="Layer_1-2" data-name="Layer 1"><path class="cls-1" d="M115.1,0H29.7V9.91H0V56.38c0,18,20.05,32.75,39.72,34.28,6.46,6.92,17.82,12,27.93,14.09V116.9c-9.67,3-26.94,9.95-27.93,17.55h66.35c-1-7.6-20-14.59-29.72-17.55V104.75c10.15-2.14,22-7.17,28.49-14.09,19.66-1.53,38.82-16.32,38.82-34.28V9.91H115.1ZM9.12,18.71H29v40a47.15,47.15,0,0,0,5.63,22.18C19.75,76.19,9.12,64,9.12,49.7ZM87,67.54,72.16,59.36,57.31,67.54l2.83-17.3L48.13,38l16.59-2.53,7.44-15.72,7.42,15.72L96.18,38l-12,12.24Zm22.06,14.67A50.88,50.88,0,0,0,114.73,59V19h19.93V49.59C134.66,64.51,124,77.26,109.06,82.21Z"/></g></g></svg>