<svg xmlns="http://www.w3.org/2000/svg" viewBox="0 0 115.67 119.69"><defs><style>.cls-1,.cls-2{fill:#f26114;}.cls-2{opacity:0.2;isolation:isolate;}</style></defs><title>kye-icon</title><g id="Layer_2" data-name="Layer 2"><g id="Layer_1-2" data-name="Layer 1"><path class="cls-1" d="M82.49,59.34a18.43,18.43,0,0,0,26-26.11l-.15-.13A18.43,18.43,0,1,0,82.57,7.31a.86.86,0,0,0-.13-.14,18.43,18.43,0,0,0-26.08,26,17.69,17.69,0,0,0,13.76,5.34L63,45.68,61.1,43.79a4,4,0,0,0-5.65,5.65l1.88,1.89-2.12,2.12-1.89-1.89c-1.44-1.44-4-.68-5.46.77l-.13.13a3.16,3.16,0,0,0-.06,4.76l1.89,1.89L25.84,82.82,1.16,107.5C-.45,109.11,0,111.36,1.6,113l1.09,1.09c1.61,1.61,3.92,2.12,5.53.51L12.78,110,21,118.22c1.17,1.17,2.84,2,4,.79l2.62-2.62a3.38,3.38,0,0,0-.27-4.53l-8.21-8.21,7.07-7.07,8.21,8.21c1.17,1.17,3.19,1.61,4.36.44l2.62-2.62a3.85,3.85,0,0,0,.09-4.89l-8.21-8.21L56.61,66.18l1.57,1.57c1.44,1.44,3.56,1.79,5,.35l.19-.19c1.44-1.44,1.91-4.37.47-5.82l-1.57-1.57,2.12-2.12L66,60a4,4,0,0,0,5.65-5.65L70,52.75l7.13-7.13A17.68,17.68,0,0,0,82.49,59.34Zm19.59-19.69a9.34,9.34,0,1,1-13.21,0A9.34,9.34,0,0,1,102.08,39.65ZM62.8,26.8A9.34,9.34,0,1,1,76,26.8,9.34,9.34,0,0,1,62.8,26.8Zm27.83-15a9.34,9.34,0,1,1,0,13.21A9.34,9.34,0,0,1,90.63,11.82Z"/><path class="cls-2" d="M97.24,2a16.38,16.38,0,0,1,9.92,29.51,2,2,0,0,0-.79,1.47,2,2,0,0,0,.6,1.55,1.22,1.22,0,0,0,.16.14,16.44,16.44,0,0,1-11.64,28,16.26,16.26,0,0,1-11.58-4.8,15.63,15.63,0,0,1-4.73-12.12,2,2,0,0,0-1.14-2,2,2,0,0,0-2.26.4l-7.47,7.47a2,2,0,0,0,0,2.83l1.57,1.57a1.56,1.56,0,0,1,.39,1.2,2.22,2.22,0,0,1-.61,1.41,2.2,2.2,0,0,1-1.53.61,1.54,1.54,0,0,1-1.09-.4l-1.57-1.57a2,2,0,0,0-2.81,0v0l-2.12,2.12a2,2,0,0,0,0,2.8l0,0,1.57,1.57a1.94,1.94,0,0,1-.19,2.59l-.19.19a1.82,1.82,0,0,1-1.28.52,1.69,1.69,0,0,1-1.18-.47l-1.57-1.57a2,2,0,0,0-2.81,0v0L31.53,88.44a2,2,0,0,0,0,2.8l0,0,8.21,8.21a1.49,1.49,0,0,1,.25,1.72l-2.62,2.62a1.24,1.24,0,0,1-.82.24,1.57,1.57,0,0,1-1-.34L27.29,95.5a2,2,0,0,0-2.82,0l-7.07,7.07a2,2,0,0,0,0,2.83l8.21,8.21a2.31,2.31,0,0,1,.63,1.07c0,.22,0,.26,0,.29l-2.62,2.62a.4.4,0,0,1-.32.1,1.84,1.84,0,0,1-1.2-.55l-8.21-8.21a2,2,0,0,0-2.81,0v0l-4.22,4.22a1.88,1.88,0,0,1-1.36.54A2.42,2.42,0,0,1,3.77,113l-1.09-1.09A2.29,2.29,0,0,1,2,110.35a2,2,0,0,1,.57-1.44l48.05-48a2,2,0,0,0,0-2.83l-1.89-1.89a1.87,1.87,0,0,1,.13-2.54l.13-.13a2.08,2.08,0,0,1,1.45-.58,1.58,1.58,0,0,1,1.12.42l1.89,1.89a2,2,0,0,0,2.82,0l2.12-2.12a2,2,0,0,0,0-2.83L56.5,48.36a2,2,0,0,1,.21-2.62,2.2,2.2,0,0,1,1.53-.61,1.54,1.54,0,0,1,1.09.4l1.89,1.89a2,2,0,0,0,2.82,0L71.51,40a2,2,0,0,0-1.42-3.42h-.2a11.12,11.12,0,0,1-1.16.06,16,16,0,0,1-11-4.81A16.43,16.43,0,0,1,81,8.55l.14.15a2,2,0,0,0,1.43.6h.13a2,2,0,0,0,1.47-.79,15.83,15.83,0,0,1,1.46-1.7A16.41,16.41,0,0,1,97.24,2m0,27.77a11.34,11.34,0,1,0-8-3.32,11.27,11.27,0,0,0,8,3.32M69.41,31.54a11.35,11.35,0,1,0-8-3.33,11.27,11.27,0,0,0,8,3.33M95.47,57.6a11.34,11.34,0,1,0-8-3.32,11.27,11.27,0,0,0,8,3.32M97.24,0A18.15,18.15,0,0,0,82.57,7.31a.86.86,0,0,0-.13-.14,18.43,18.43,0,0,0-26.08,26,18,18,0,0,0,12.41,5.4,12.08,12.08,0,0,0,1.35-.07L62.65,46l-1.89-1.89a3.5,3.5,0,0,0-2.5-1,4.18,4.18,0,0,0-2.94,1.2,4,4,0,0,0-.21,5.44L57,51.67l-2.12,2.12L53,51.9a3.55,3.55,0,0,0-2.53-1,4,4,0,0,0-2.86,1.17l-.13.13a3.86,3.86,0,0,0-.13,5.36l1.89,1.89L25.84,82.82,1.16,107.5a4.1,4.1,0,0,0,.1,5.81l1.09,1.09a4.41,4.41,0,0,0,3.1,1.3,3.85,3.85,0,0,0,2.77-1.13l4.22-4.22,8.21,8.21a3.84,3.84,0,0,0,2.61,1.13A2.4,2.4,0,0,0,25,119l2.62-2.62c1.17-1.17.56-3-.61-4.19L18.79,104l7.07-7.07,8.21,8.21a3.52,3.52,0,0,0,2.46.93,3.17,3.17,0,0,0,2.24-.83l2.62-2.62a3.4,3.4,0,0,0-.25-4.55L33,89.85,56.28,66.52l1.57,1.57a3.65,3.65,0,0,0,2.59,1.06A3.77,3.77,0,0,0,63.13,68l.19-.19a4,4,0,0,0,.19-5.42l-1.57-1.57,2.12-2.12,1.57,1.57a3.5,3.5,0,0,0,2.5,1,4.18,4.18,0,0,0,2.94-1.2,4,4,0,0,0,.21-5.44l-1.57-1.57,7.47-7.47a17.61,17.61,0,0,0,5.3,13.73,18.43,18.43,0,0,0,26-26.11l-.15-.13A18.42,18.42,0,0,0,97.24,0Zm0,27.77a9.35,9.35,0,0,1-6.62-15.94h0A9.34,9.34,0,0,1,103.85,25h0A9.31,9.31,0,0,1,97.24,27.77ZM69.41,29.54A9.35,9.35,0,0,1,62.79,13.6h0A9.34,9.34,0,0,1,76,26.79h0A9.36,9.36,0,0,1,69.41,29.54ZM95.47,55.6a9.35,9.35,0,0,1-6.62-15.94h0a9.34,9.34,0,0,1,13.22,13.2h0A9.31,9.31,0,0,1,95.47,55.6Z"/></g></g></svg>