<svg xmlns="http://www.w3.org/2000/svg" xmlns:xlink="http://www.w3.org/1999/xlink" viewBox="0 0 466.13 466.13"><defs><style>.cls-1{fill:url(#radial-gradient);}.cls-2{fill:#fff;}</style><radialGradient id="radial-gradient" cx="233.06" cy="233.06" r="339.29" gradientUnits="userSpaceOnUse"><stop offset="0.05" stop-color="#f9a55a"/><stop offset="1" stop-color="#eb7f44"/></radialGradient></defs><title>logo-icon-app</title><g id="Layer_2" data-name="Layer 2"><g id="Layer_1-2" data-name="Layer 1"><rect class="cls-1" width="466.13" height="466.13" rx="101.44"/><g id="vBSopL.tif"><path class="cls-2" d="M296.38,317.63H234.22c-21.54,0-43.08,0-64.62,0a4.29,4.29,0,0,1-4.24-2.28c-1.82-3-3.86-5.86-6.16-9.32-2.15,3.22-4.21,6.11-6,9.13a4.36,4.36,0,0,1-4.48,2.47c-9.19-.55-18.48-.28-27.55-1.62-5.09-.75-10.18-3.47-14.62-6.33-7.29-4.68-10.73-11.67-10.7-20.63q.21-76.81,0-153.64c0-10.23,4.25-17.76,12.83-22.49,16.49-9.09,33.24-9,49.48.71,7.86,4.72,12.06,11.93,11.69,21.45-.17,4.38,0,8.77,0,13.63h4c26.71,0,53.42,0,80.12-.06,2.39,0,3.81.67,5,2.72,1.69,2.92,3.71,5.64,5.88,8.86,2.33-3.49,4.35-6.71,6.62-9.75a4.58,4.58,0,0,1,3.11-1.7c20.55-.08,41.11-.25,61.65.05a39.62,39.62,0,0,1,25.56,9.2,22.9,22.9,0,0,1,8.64,18.41q-.1,77.47,0,155c0,9-3.71,15.62-10.74,20.69-14.4,10.4-38.51,10.31-52.83-.2-6.89-5.06-10.78-11.67-10.41-20.51C296.53,327,296.38,322.46,296.38,317.63ZM159.19,287c4.11,6.14,8,11.74,11.61,17.47a4.93,4.93,0,0,0,4.71,2.65q58.52-.12,117-.06h3.84v-3.23q0-43.51,0-87c0-13.63,0-27.25,0-40.88,0-3.5,1.86-5.75,4.79-6a5.08,5.08,0,0,1,5.69,4.73c.29,5.31,3.16,8.91,7.46,11.29,12.73,7,25.71,7.19,38.24-.22,9.69-5.74,9.49-15.11,0-21.2-5.81-3.73-12.31-5.13-19.14-5.14-14.72,0-29.48.56-44.16-.24-8.38-.46-13.84,1.71-17.39,9.41-1.74,3.78-4.58,7.05-7.13,10.87-4-6-7.75-11.39-11.24-17a5.91,5.91,0,0,0-5.77-3.16q-57.36.17-114.72.07a46.81,46.81,0,0,1-25.11-6.71,8.28,8.28,0,0,0-1.44-.54v4.83q0,66.1-.07,132.19c0,5.57,2.16,9.65,6.67,12.36,3.07,1.83,6.46,3.7,9.9,4.19a176.21,176.21,0,0,0,20.31,1.3,5.37,5.37,0,0,0,3.87-2C151.18,299.19,155,293.3,159.19,287ZM307,194.22v2.05q0,68.07,0,136.14c0,4.76,2.26,8.11,5.88,10.8,10.74,8,29.86,8.06,40.75.19a13.75,13.75,0,0,0,6.19-12q-.15-66.75-.05-133.5v-3.73C342,204,324.67,204.07,307,194.22ZM159.19,148.1c0-3.55-.29-7.69.06-11.78.63-7.45-3.07-12.12-9.27-15.2a35,35,0,0,0-8.34-3c-10.76-2.25-21.09-1.25-30.07,5.64-6.93,5.31-7,13.26.13,18.21,4.11,2.83,9.2,5.44,14,5.82C136.64,148.69,147.66,148.1,159.19,148.1Z"/><path class="cls-2" d="M218.36,186.82l7.59,8.05c-3.85,3.74-7.82,7.6-12.33,12l12.77,11.81-7.69,7.56-11.9-12.53-11.94,12.92-7.36-7.91,12.37-11.94-13.06-11.66,8-7.91,11.5,12.68Z"/><path class="cls-2" d="M180.3,206.75a5.28,5.28,0,1,1-5.24-5.22A5.32,5.32,0,0,1,180.3,206.75Z"/><path class="cls-2" d="M154,222.63a5.28,5.28,0,1,1,5.23-5.23A5.32,5.32,0,0,1,154,222.63Z"/><path class="cls-2" d="M148.64,238.4a5.28,5.28,0,1,1-5.25-5.21A5.33,5.33,0,0,1,148.64,238.4Z"/><path class="cls-2" d="M159.2,259.51a5.28,5.28,0,1,1-10.56-.06,5.26,5.26,0,0,1,5.3-5.16A5.32,5.32,0,0,1,159.2,259.51Z"/><path class="cls-2" d="M180.3,270.25a5.28,5.28,0,1,1-5.07-5.4A5.34,5.34,0,0,1,180.3,270.25Z"/><path class="cls-2" d="M201.41,270.13a5.28,5.28,0,1,1-10.55-.19,5.25,5.25,0,0,1,5.36-5.09A5.32,5.32,0,0,1,201.41,270.13Z"/><path class="cls-2" d="M212,270.13a5.27,5.27,0,1,1,10.54.14,5.27,5.27,0,0,1-10.54-.14Z"/><path class="cls-2" d="M243.62,270.25a5.28,5.28,0,1,1-5.07-5.4A5.32,5.32,0,0,1,243.62,270.25Z"/><path class="cls-2" d="M259.5,275.4a5.28,5.28,0,1,1,5.23-5.24A5.33,5.33,0,0,1,259.5,275.4Z"/><path class="cls-2" d="M280.52,264.85a5.28,5.28,0,0,1,5.31,5.15,5.28,5.28,0,1,1-10.55.07A5.28,5.28,0,0,1,280.52,264.85Z"/></g></g></g></svg>