<svg xmlns="http://www.w3.org/2000/svg" viewBox="0 0 308.06 388.43"><defs><style>.cls-1{fill:#bf3a2b;}.cls-2{fill:#e54c3c;}.cls-3{fill:#f2d45b;}.cls-4{fill:#f8e9af;}.cls-5{fill:#ca8152;}.cls-6{fill:#805333;}.cls-7{fill:#e47e25;}.cls-8{fill:#a46a43;}.cls-9{fill:#603e26;}.cls-10{fill:#fff;}</style></defs><title>pin-icon-map</title><g id="Layer_2" data-name="Layer 2"><g id="Layer_1-2" data-name="Layer 1"><g id="Page-1"><g id="_040---Treasure-Location" data-name="040---Treasure-Location"><path id="Shape" class="cls-1" d="M225,290.71,157,386.88a3.71,3.71,0,0,1-6,0l-67.9-96.17Z"/><circle id="Oval" class="cls-2" cx="154.03" cy="154.03" r="154.03"/><path id="Shape-2" data-name="Shape" class="cls-3" d="M247.78,240a127.24,127.24,0,1,0-187.51,0Z"/><path id="Shape-3" data-name="Shape" class="cls-4" d="M259.17,82.37A127.3,127.3,0,0,0,71.52,240H60.27A127.21,127.21,0,1,1,259.17,82.37Z"/><path id="Shape-4" data-name="Shape" class="cls-5" d="M247.78,174.12V240a127,127,0,0,1-187.51,0V174.12Z"/><path id="Shape-5" data-name="Shape" class="cls-6" d="M221,254.48H87.06V207.6a6.69,6.69,0,0,1,6.7-6.69H214.3a6.69,6.69,0,0,1,6.7,6.69Z"/><path id="Shape-6" data-name="Shape" class="cls-7" d="M127.24,93.76a40.18,40.18,0,0,0-40.18,40.18v40.18H60.27V133.94a40.18,40.18,0,0,1,40.18-40.18Z"/><path id="Shape-7" data-name="Shape" class="cls-7" d="M247.78,133.94v40.18H221V133.94a40.18,40.18,0,0,0-40.18-40.18H207.6A40.18,40.18,0,0,1,247.78,133.94Z"/><path id="Shape-8" data-name="Shape" class="cls-8" d="M221,133.94v40.18H87.06V133.94a41.17,41.17,0,0,1,5.42-20.09,40.07,40.07,0,0,1,34.76-20.09h53.58a40.05,40.05,0,0,1,34.75,20.09A41.18,41.18,0,0,1,221,133.94Z"/><path id="Shape-9" data-name="Shape" class="cls-3" d="M127.24,174.12h53.58V214.3a13.39,13.39,0,0,1-13.4,13.39H140.63a13.39,13.39,0,0,1-13.39-13.39Z"/><circle id="Oval-2" data-name="Oval" class="cls-9" cx="154.03" cy="200.91" r="6.7"/><path id="Shape-10" data-name="Shape" class="cls-6" d="M127.24,147.33a6.7,6.7,0,0,1-6.7,6.7H87.06v-13.4h33.48A6.7,6.7,0,0,1,127.24,147.33Z"/><path id="Shape-11" data-name="Shape" class="cls-6" d="M221,140.63V154H147.33a6.7,6.7,0,0,1,0-13.4Z"/><path id="Shape-12" data-name="Shape" class="cls-6" d="M220.39,127.24H187.51a6.7,6.7,0,0,1,0-13.39h28.06A36.89,36.89,0,0,1,220.39,127.24Z"/><path id="Shape-13" data-name="Shape" class="cls-6" d="M167.42,120.54a6.7,6.7,0,0,1-6.7,6.7H87.66a36.89,36.89,0,0,1,4.82-13.39h68.24A6.7,6.7,0,0,1,167.42,120.54Z"/><path id="Shape-14" data-name="Shape" class="cls-10" d="M154,288A133.94,133.94,0,1,1,288,154,133.94,133.94,0,0,1,154,288Zm0-254.49A120.55,120.55,0,1,0,274.57,154,120.55,120.55,0,0,0,154,33.48Z"/></g></g></g></g></svg>