<svg xmlns="http://www.w3.org/2000/svg" viewBox="0 0 168.29 183.25"><defs><style>.cls-1{fill:#795548;}</style></defs><title>share-icon</title><g id="Layer_2" data-name="Layer 2"><g id="Layer_1-2" data-name="Layer 1"><path class="cls-1" d="M140.24,127.15a27.92,27.92,0,0,0-17.62,6.24l-48.43-35a37.64,37.64,0,0,0,0-13.47l48.43-35a28,28,0,1,0-9.33-14l-46,33.31a37.4,37.4,0,1,0,0,45l46,33.31a28.05,28.05,0,1,0,27-20.27Zm0-111.26a12.16,12.16,0,1,1-12.15,12.16A12.17,12.17,0,0,1,140.24,15.89ZM37.4,112.19A20.57,20.57,0,1,1,58,91.63,20.59,20.59,0,0,1,37.4,112.19Zm102.84,55.17A12.16,12.16,0,1,1,152.4,155.2,12.17,12.17,0,0,1,140.24,167.36Z"/></g></g></svg>