<svg xmlns="http://www.w3.org/2000/svg" viewBox="0 0 171.1 158.05"><defs><style>.cls-1{fill:#805333;}</style></defs><title>logo-treasure-hunt-brown</title><g id="Layer_2" data-name="Layer 2"><g id="Layer_1-2" data-name="Layer 1"><g id="vBSopL.tif"><path class="cls-1" d="M125,131.73H86.27c-13.42,0-26.85,0-40.27,0a2.69,2.69,0,0,1-2.65-1.42c-1.13-1.87-2.4-3.65-3.84-5.8-1.33,2-2.62,3.8-3.76,5.69a2.71,2.71,0,0,1-2.8,1.53c-5.72-.34-11.52-.17-17.16-1-3.18-.47-6.35-2.17-9.12-4C2.13,123.88,0,119.53,0,113.94Q.14,66.08,0,18.19c0-6.37,2.64-11.07,8-14,10.28-5.67,20.72-5.62,30.84.44A14.13,14.13,0,0,1,46.12,18c-.11,2.73,0,5.46,0,8.49h2.47c16.64,0,33.29,0,49.93,0a3.1,3.1,0,0,1,3.12,1.69c1,1.82,2.31,3.52,3.66,5.52,1.46-2.17,2.71-4.18,4.13-6.07a2.82,2.82,0,0,1,1.94-1.06c12.81-.06,25.62-.16,38.42,0a24.66,24.66,0,0,1,15.93,5.73,14.26,14.26,0,0,1,5.38,11.47q-.06,48.29,0,96.58a15,15,0,0,1-6.7,12.89c-9,6.48-24,6.43-32.92-.12-4.3-3.16-6.72-7.28-6.49-12.78C125.1,137.54,125,134.74,125,131.73Zm-85.5-19.1c2.56,3.83,5,7.32,7.24,10.89a3,3,0,0,0,2.93,1.65q36.46-.08,72.93,0H125v-2q0-27.12,0-54.23,0-12.75,0-25.48c0-2.18,1.16-3.58,3-3.76a3.18,3.18,0,0,1,3.55,3,8.23,8.23,0,0,0,4.65,7c7.93,4.37,16,4.49,23.83-.13,6-3.58,5.91-9.42,0-13.22a21.69,21.69,0,0,0-11.93-3.2c-9.17,0-18.37.35-27.52-.15-5.22-.28-8.62,1.07-10.84,5.86-1.08,2.36-2.85,4.4-4.44,6.78-2.49-3.73-4.83-7.1-7-10.57a3.66,3.66,0,0,0-3.59-2c-23.83.07-47.66,0-71.49,0A29.22,29.22,0,0,1,7.53,28.89a5.43,5.43,0,0,0-.89-.34v3c0,27.46,0,54.92,0,82.39a8.31,8.31,0,0,0,4.16,7.7,17.6,17.6,0,0,0,6.17,2.61,108.91,108.91,0,0,0,12.65.81A3.4,3.4,0,0,0,32,123.8C34.52,120.24,36.89,116.56,39.51,112.63ZM131.6,54.82V56.1q0,42.42,0,84.84a8,8,0,0,0,3.67,6.73c6.69,5,18.61,5,25.39.12a8.57,8.57,0,0,0,3.86-7.47q-.09-41.59,0-83.2V54.8C153.43,60.94,142.64,61,131.6,54.82ZM39.51,26.08c0-2.21-.18-4.79,0-7.34.39-4.65-1.92-7.56-5.78-9.47a21.5,21.5,0,0,0-5.2-1.85C21.87,6,15.43,6.64,9.83,10.93c-4.32,3.31-4.38,8.27.08,11.35,2.57,1.77,5.74,3.39,8.75,3.63C25.45,26.44,32.32,26.08,39.51,26.08Z"/><path class="cls-1" d="M76.39,50.21l4.73,5L73.43,62.7l8,7.36L76.6,74.78,69.18,67,61.74,75l-4.59-4.93,7.71-7.44c-2.92-2.62-5.5-4.92-8.14-7.27l5-4.93,7.16,7.9Z"/><path class="cls-1" d="M52.67,62.63a3.29,3.29,0,0,1-6.58.16,3.29,3.29,0,1,1,6.58-.16Z"/><path class="cls-1" d="M36.25,72.53a3.29,3.29,0,1,1,3.26-3.27A3.29,3.29,0,0,1,36.25,72.53Z"/><path class="cls-1" d="M32.94,82.35a3.29,3.29,0,1,1-3.28-3.24A3.32,3.32,0,0,1,32.94,82.35Z"/><path class="cls-1" d="M39.52,95.51a3.35,3.35,0,0,1-3.21,3.33,3.31,3.31,0,0,1-3.37-3.37,3.27,3.27,0,0,1,3.3-3.21A3.32,3.32,0,0,1,39.52,95.51Z"/><path class="cls-1" d="M52.67,102.2a3.29,3.29,0,1,1-3.16-3.36A3.33,3.33,0,0,1,52.67,102.2Z"/><path class="cls-1" d="M65.82,102.13a3.29,3.29,0,1,1-6.58-.12,3.29,3.29,0,0,1,6.58.12Z"/><path class="cls-1" d="M72.4,102.13a3.29,3.29,0,1,1,3.24,3.28A3.28,3.28,0,0,1,72.4,102.13Z"/><path class="cls-1" d="M92.13,102.2A3.29,3.29,0,1,1,89,98.84,3.32,3.32,0,0,1,92.13,102.2Z"/><path class="cls-1" d="M102,105.41a3.29,3.29,0,1,1,3.26-3.26A3.32,3.32,0,0,1,102,105.41Z"/><path class="cls-1" d="M115.12,98.83a3.29,3.29,0,1,1-3.26,3.26A3.3,3.3,0,0,1,115.12,98.83Z"/></g></g></g></svg>