<svg xmlns="http://www.w3.org/2000/svg" viewBox="0 0 281.56 281.56"><defs><style>.cls-1{fill:#ffdd67;}.cls-2{fill:#664e27;}.cls-3{fill:#fff;}</style></defs><title>emoji-dizzy-face</title><g id="Layer_2" data-name="Layer 2"><g id="Layer_1-2" data-name="Layer 1"><circle class="cls-1" cx="140.78" cy="140.78" r="140.78"/><path class="cls-2" d="M124.83,83.53,68,140.78c-3.75,3.76-16.89-9.38-13.14-13.14l57.26-57.25c3.28-3.28,16.42,9.86,12.67,13.14"/><path class="cls-2" d="M111.69,140.78,54.9,83.53C51.15,79.78,64.29,66.64,68,70.39l57.26,57.25c3.28,3.76-9.86,16.9-13.61,13.14"/><path class="cls-2" d="M226.66,83.53l-56.78,57.25c-3.76,3.76-16.9-9.38-13.14-13.14L214,70.39c3.28-3.28,16.42,9.86,12.67,13.14"/><path class="cls-2" d="M213.52,140.78,156.74,83.53c-3.76-3.75,9.38-16.89,13.14-13.14l57.25,57.25c3.28,3.76-9.86,16.9-13.61,13.14"/><circle class="cls-2" cx="140.78" cy="211.17" r="42.23"/><path class="cls-3" d="M112.63,197.09c5.63-11.26,16-18.77,28.15-18.77s22.53,7.51,28.16,18.77H112.63"/></g></g></svg>